<svg y="0px" x="0px" viewBox="0 0 513.28 518.4000000000001" xmlns="http://www.w3.org/2000/svg" style="max-height: 500px" width="513.28" height="518.4000000000001"><path d="M208,192h8a24.02687,24.02687,0,0,0,24-24V152H224v16a8.00917,8.00917,0,0,1-8,8h-8Z"/><circle r="8" cy="144" cx="200"/><circle r="8" cy="144" cx="248"/><path d="M197.65674,194.34326l-11.31348,11.31348A35.08178,35.08178,0,0,0,211.31348,216H232V200H211.31348A19.18705,19.18705,0,0,1,197.65674,194.34326Z"/><path d="M488,280H467.69507A31.794,31.794,0,0,0,472,264v-8a7.99977,7.99977,0,0,0-8-8H437.91577a43.95878,43.95878,0,0,0-.54968-56.68341,30.457,30.457,0,0,0-2.81506-6.55408L443.31348,176H456a8,8,0,0,0,0-16h-8v-8a8,8,0,0,0-16,0v12.68652l-8.76245,8.76252A30.56858,30.56858,0,0,0,388.97925,176H364a43.966,43.966,0,0,0-42.886,53.80048l-2.08471-2.08466A39.73644,39.73644,0,0,0,290.74512,216H274.70605A65.47688,65.47688,0,0,0,280,190.14746V112h14.11133a17.88828,17.88828,0,0,0,8-33.88818L277.478,65.79492l-2.97559-4.46338A101.79981,101.79981,0,0,0,88,117.7998a119.59462,119.59462,0,0,0,12.56152,53.21192l5.57471,11.14941A32.16545,32.16545,0,0,0,120,196.33313V216H97.53906A81.63122,81.63122,0,0,0,16,297.53906V496H32V346.07446a82.68948,82.68948,0,0,0,7.88232,9.12134L161.94141,477.25488A63.58075,63.58075,0,0,0,207.1958,496H416a80.09041,80.09041,0,0,0,80-80V288A7.99977,7.99977,0,0,0,488,280Zm-8,120H288V312.96362l25.49023,35.68628A7.99921,7.99921,0,0,0,320,352H448a7.99921,7.99921,0,0,0,6.50977-3.3501L480,312.96362Zm-7.54541-104L443.8833,336H324.1167l-28.57129-40ZM440,280H328a16.01833,16.01833,0,0,1-16-16H456A16.01833,16.01833,0,0,1,440,280Zm-76-88h8.68652l-10.34326,10.34326,11.31348,11.31348,24-24a14.62758,14.62758,0,0,1,20.68652,20.68652L400.9707,227.71582l11.31348,11.31348,17.37256-17.37256a31.13487,31.13487,0,0,0,2.3208-2.60712c.0105.31635.02246.63251.02246.95038a28.03146,28.03146,0,0,1-28,28H364a28,28,0,0,1,0-56Zm-100-1.85254A49.55142,49.55142,0,0,1,256.75854,216H256v1.182a49.82479,49.82479,0,0,1-87.67383-7.39637L159.35535,188.854a32.061,32.061,0,0,0,5.97277-10.09668L189.60352,112H264Zm-87.13531,71.40381L136,220.68652V199.96069a32.05352,32.05352,0,0,0,9.89655-1.89361l7.72357,18.0213a65.7725,65.7725,0,0,0,37.05627,35.59741ZM120,232h4.68652l38.5459,38.5459L120,297.56592Zm92.21387,23.96417c.64331.01874,1.28692.03583,1.93359.03583A65.64087,65.64087,0,0,0,232,253.52063v44.04529l-41.61523-26.00928ZM294.95654,92.42285A1.88835,1.88835,0,0,1,294.11133,96H168l12-16h90.11182ZM104,117.7998A85.79874,85.79874,0,0,1,256.63525,64H176a7.99927,7.99927,0,0,0-6.3999,3.2002l-24,32A8,8,0,0,0,152,112h20.57819L150.291,173.28955a16.27046,16.27046,0,0,1-29.84375,1.71631l-5.57471-11.14941A103.514,103.514,0,0,1,104,117.7998Zm69.25488,348.14161L51.1958,343.88232A65.53927,65.53927,0,0,1,97.53906,232H104v80a8.00043,8.00043,0,0,0,12.24023,6.78418L168,286.43433V320h16V286.43433l51.75977,32.34985A8.00044,8.00044,0,0,0,248,312V246.6073A66.35408,66.35408,0,0,0,264.95276,232h25.79236a23.84457,23.84457,0,0,1,16.9707,7.0293L316.68652,248H304a7.99977,7.99977,0,0,0-8,8v8a31.794,31.794,0,0,0,4.30493,16H280a7.99977,7.99977,0,0,0-8,8V400H235.31348l-61.65674-61.65674-11.31348,11.31348,64,64A7.99877,7.99877,0,0,0,232,416h96v64H207.1958A47.68523,47.68523,0,0,1,173.25488,465.94141ZM344,480V416h41.167a6.83293,6.83293,0,0,1,3.05615,12.94434l-23.80078,11.90039,7.15528,14.31054,23.80127-11.90039A22.83678,22.83678,0,0,0,406.95459,416H432a64.0727,64.0727,0,0,1-64,64Zm72,0h-.05542A79.92657,79.92657,0,0,0,448,416h32A64.0727,64.0727,0,0,1,416,480Z"/><path d="M346.75732,154.55762l6.58643,9.87988,13.3125-8.875-6.58643-9.88037a12.73423,12.73423,0,0,1,1.58692-16.02539,28.77679,28.77679,0,0,0,3.58594-36.21436l-6.58643-9.87988-13.3125,8.875,6.58643,9.88037a12.73423,12.73423,0,0,1-1.58692,16.02539A28.77679,28.77679,0,0,0,346.75732,154.55762Z"/><path d="M386.75732,154.55762l6.58643,9.87988,13.3125-8.875-6.58643-9.88037a12.73423,12.73423,0,0,1,1.58692-16.02539,28.77679,28.77679,0,0,0,3.58594-36.21436l-6.58643-9.87988-13.3125,8.875,6.58643,9.88037a12.73423,12.73423,0,0,1-1.58692,16.02539A28.77679,28.77679,0,0,0,386.75732,154.55762Z"/><text font-family="'Helvetica Neue', Helvetica, Arial-Unicode, Arial, Sans-serif" font-weight="bold" font-size="5px" fill="#000000" y="527" x="0">Created by PenSmasher</text><text font-family="'Helvetica Neue', Helvetica, Arial-Unicode, Arial, Sans-serif" font-weight="bold" font-size="5px" fill="#000000" y="532" x="0">from the Noun Project</text></svg>