<svg xmlns="http://www.w3.org/2000/svg" xmlns:xlink="http://www.w3.org/1999/xlink" width="500" zoomAndPan="magnify" viewBox="0 0 375 374.999991" height="500" preserveAspectRatio="xMidYMid meet" version="1.2"><defs><clipPath id="ad9aacad3e"><path d="M 187.5 0 C 83.945312 0 0 83.945312 0 187.5 C 0 291.054688 83.945312 375 187.5 375 C 291.054688 375 375 291.054688 375 187.5 C 375 83.945312 291.054688 0 187.5 0 Z M 187.5 0 "/></clipPath><clipPath id="82e1cb3c29"><path d="M 112.5 170.25 L 262.5 170.25 L 262.5 204.75 L 112.5 204.75 Z M 112.5 170.25 "/></clipPath></defs><g id="af134ed5cd"><g clip-rule="nonzero" clip-path="url(#ad9aacad3e)"><rect x="0" width="375" y="0" height="374.999991" style="fill:#ffffff;fill-opacity:1;stroke:none;"/></g><g clip-rule="nonzero" clip-path="url(#82e1cb3c29)"><path style=" stroke:none;fill-rule:nonzero;fill:#000000;fill-opacity:1;" d="M 262.441406 187.507812 C 262.441406 196.835938 254.886719 204.390625 245.558594 204.390625 L 129.4375 204.390625 C 120.113281 204.390625 112.554688 196.835938 112.554688 187.507812 C 112.554688 178.183594 120.113281 170.625 129.4375 170.625 L 245.558594 170.625 C 254.886719 170.625 262.441406 178.183594 262.441406 187.507812 Z M 262.441406 187.507812 "/></g></g></svg>