<svg xmlns="http://www.w3.org/2000/svg" xmlns:xlink="http://www.w3.org/1999/xlink" width="500" zoomAndPan="magnify" viewBox="0 0 375 374.999991" height="500" preserveAspectRatio="xMidYMid meet" version="1.2"><defs><clipPath id="9ac154f304"><path d="M 187.5 0 C 83.945312 0 0 83.945312 0 187.5 C 0 291.054688 83.945312 375 187.5 375 C 291.054688 375 375 291.054688 375 187.5 C 375 83.945312 291.054688 0 187.5 0 Z M 187.5 0 "/></clipPath><clipPath id="29452c1a72"><path d="M 112.5 112.5 L 262.5 112.5 L 262.5 262.5 L 112.5 262.5 Z M 112.5 112.5 "/></clipPath></defs><g id="17dffb8629"><g clip-rule="nonzero" clip-path="url(#9ac154f304)"><rect x="0" width="375" y="0" height="374.999991" style="fill:#ffffff;fill-opacity:1;stroke:none;"/></g><g clip-rule="nonzero" clip-path="url(#29452c1a72)"><path style=" stroke:none;fill-rule:nonzero;fill:#000000;fill-opacity:1;" d="M 247.777344 169.976562 L 201.5625 169.972656 L 201.5625 127.085938 C 201.5625 118.980469 194.988281 112.410156 186.882812 112.410156 C 178.78125 112.410156 172.210938 118.980469 172.210938 127.085938 L 172.210938 169.972656 L 127.222656 169.972656 C 119.117188 169.972656 112.542969 176.546875 112.542969 184.648438 C 112.550781 192.753906 119.117188 199.324219 127.222656 199.324219 L 172.210938 199.324219 L 172.210938 247.644531 C 172.210938 255.757812 178.78125 262.320312 186.886719 262.320312 C 194.992188 262.320312 201.5625 255.75 201.5625 247.648438 L 201.5625 199.324219 L 247.78125 199.324219 C 255.882812 199.324219 262.457031 192.753906 262.457031 184.652344 C 262.460938 176.542969 255.882812 169.972656 247.777344 169.976562 Z M 247.777344 169.976562 "/></g></g></svg>